<svg width="30" height="30" viewBox="0 0 30 30" fill="none" xmlns="http://www.w3.org/2000/svg">
<path d="M28.0748 13.0333H6.56979L15.965 3.38551C16.7158 2.61448 16.7158 1.3492 15.965 0.578163C15.7869 0.394888 15.5753 0.249484 15.3424 0.150275C15.1095 0.0510655 14.8598 0 14.6077 0C14.3555 0 14.1059 0.0510655 13.873 0.150275C13.6401 0.249484 13.4285 0.394888 13.2504 0.578163L0.563026 13.6066C0.384549 13.7895 0.242952 14.0068 0.146341 14.2459C0.0497294 14.4851 0 14.7415 0 15.0004C0 15.2593 0.0497294 15.5157 0.146341 15.7549C0.242952 15.9941 0.384549 16.2113 0.563026 16.3942L13.2504 29.4227C13.4286 29.6057 13.6402 29.7509 13.8731 29.85C14.106 29.949 14.3556 30 14.6077 30C14.8598 30 15.1094 29.949 15.3422 29.85C15.5751 29.7509 15.7867 29.6057 15.965 29.4227C16.1432 29.2396 16.2846 29.0223 16.3811 28.7832C16.4775 28.5441 16.5272 28.2877 16.5272 28.0289C16.5272 27.77 16.4775 27.5137 16.3811 27.2746C16.2846 27.0354 16.1432 26.8181 15.965 26.6351L6.56979 16.9873H28.0748C29.1336 16.9873 30 16.0977 30 15.0103C30 13.923 29.1336 13.0333 28.0748 13.0333Z" fill="black"/>
</svg>
