<?xml version="1.0" standalone="no"?>
<!DOCTYPE svg PUBLIC "-//W3C//DTD SVG 20010904//EN"
 "http://www.w3.org/TR/2001/REC-SVG-20010904/DTD/svg10.dtd">
<svg version="1.0" xmlns="http://www.w3.org/2000/svg"
 width="612.000000pt" height="198.000000pt" viewBox="0 0 612.000000 198.000000"
 preserveAspectRatio="xMidYMid meet">

<g transform="translate(0.000000,198.000000) scale(0.100000,-0.100000)"
fill="#000000" stroke="none">
<path d="M470 1568 c-157 -55 -284 -205 -326 -385 -24 -104 -15 -287 19 -375
73 -189 224 -331 417 -389 105 -33 255 -33 360 0 195 59 357 214 419 399 57
168 44 352 -35 502 -66 126 -166 214 -288 252 -51 16 -76 19 -151 13 -110 -9
-134 -9 -255 -1 -83 6 -103 4 -160 -16z m112 -150 c-33 -36 -72 -123 -82 -181
-21 -129 45 -256 159 -305 47 -20 156 -20 202 0 57 25 114 83 139 140 43 100
13 264 -62 346 l-21 22 32 0 c80 0 199 -100 251 -213 89 -191 43 -410 -116
-556 -186 -170 -461 -171 -646 -3 -110 101 -159 213 -159 363 0 93 23 180 65
247 55 86 159 161 225 162 l34 0 -21 -22z m218 -50 c72 -73 96 -193 52 -256
-72 -101 -224 -30 -208 96 3 24 14 63 24 86 18 40 75 106 92 106 4 0 22 -15
40 -32z"/>
<path d="M1711 1304 c-46 -33 -51 -64 -51 -344 l0 -260 65 0 65 0 0 240 c0
132 3 240 8 240 4 0 56 -95 116 -211 60 -116 122 -223 138 -239 56 -57 158
-45 195 22 16 29 18 65 21 301 l3 267 -71 0 -72 0 4 -240 c3 -251 -1 -276 -36
-202 -9 20 -61 120 -114 221 -73 138 -105 189 -127 203 -38 23 -112 24 -144 2z"/>
<path d="M2320 1255 l0 -65 100 0 100 0 0 -245 0 -245 70 0 70 0 0 245 0 245
100 0 100 0 0 65 0 65 -270 0 -270 0 0 -65z"/>
<path d="M2910 1255 l0 -65 100 0 100 0 0 -245 0 -245 68 0 67 0 0 242 0 243
100 5 100 5 0 60 0 60 -267 3 -268 2 0 -65z"/>
<path d="M3620 1011 l0 -311 219 0 c233 0 267 5 314 48 40 38 47 78 47 267 0
157 -2 174 -22 215 -41 80 -58 85 -325 88 l-233 4 0 -311z m426 158 c15 -17
19 -40 22 -130 3 -60 1 -125 -2 -144 -12 -61 -22 -65 -172 -65 l-134 0 0 180
0 180 133 0 c123 0 135 -2 153 -21z"/>
<path d="M4300 1255 l0 -65 188 0 c212 0 220 -2 229 -67 l5 -41 -183 -4 c-163
-3 -187 -5 -213 -23 -41 -27 -56 -72 -56 -165 0 -107 16 -145 72 -170 39 -18
67 -20 276 -20 l232 0 0 238 c0 130 -5 253 -10 273 -13 48 -56 86 -110 98 -25
6 -132 11 -237 11 l-193 0 0 -65z m420 -360 l0 -65 -148 0 c-163 0 -172 3
-172 58 0 71 3 72 170 72 l150 0 0 -65z"/>
<path d="M4890 1255 l0 -65 100 0 100 0 0 -245 0 -245 65 0 65 0 0 245 0 245
100 0 100 0 0 65 0 65 -265 0 -265 0 0 -65z"/>
<path d="M5480 1256 l0 -66 188 0 c174 0 190 -2 206 -19 10 -11 19 -35 19 -53
l2 -33 -180 -5 c-150 -4 -186 -8 -208 -23 -46 -30 -61 -72 -61 -167 0 -95 15
-137 61 -167 24 -16 59 -18 276 -21 l248 -3 -3 253 c-3 233 -5 256 -23 288
-41 69 -64 75 -307 78 l-218 4 0 -66z m418 -363 l3 -63 -149 0 c-102 0 -152 4
-160 12 -16 16 -15 91 0 106 9 9 53 12 158 10 l145 -3 3 -62z"/>
</g>
</svg>
