<svg width="30" height="30" viewBox="0 0 30 30" fill="none" xmlns="http://www.w3.org/2000/svg">
<path d="M29.4684 16.5183L18.6703 29.3715C18.3322 29.7739 17.8736 30 17.3955 30C16.9174 30 16.4588 29.7739 16.1207 29.3715C15.7826 28.969 15.5927 28.4232 15.5927 27.8541C15.5927 27.285 15.7826 26.7391 16.1207 26.3367L23.8459 17.1449H1.79969C1.32238 17.1449 0.864624 16.9192 0.527117 16.5174C0.18961 16.1157 0 15.5708 0 15.0027C0 14.4345 0.18961 13.8897 0.527117 13.4879C0.864624 13.0862 1.32238 12.8605 1.79969 12.8605H23.8459L16.1237 3.66331C15.7856 3.26087 15.5957 2.71505 15.5957 2.14591C15.5957 1.57678 15.7856 1.03096 16.1237 0.628523C16.4618 0.226086 16.9204 8.48073e-09 17.3985 0C17.8766 -8.48073e-09 18.3352 0.226086 18.6733 0.628523L29.4714 13.4817C29.6392 13.681 29.7723 13.9178 29.863 14.1785C29.9537 14.4391 30.0003 14.7186 30 15.0007C29.9997 15.2829 29.9526 15.5622 29.8614 15.8226C29.7702 16.0831 29.6366 16.3195 29.4684 16.5183Z" fill="black"/>
</svg>
